<svg viewBox="0 0 30 32" fill="none" xmlns="http://www.w3.org/2000/svg" class="h-auto w-full" data-fc-idx="0"><svg style="fill: none !important;">
    <path fill="currentColor" fillrule="evenodd" cliprule="evenodd" d="M15 0.124727C15.4832 0.124727 15.8748 0.516607 15.875 0.999727V8.88645L24.3809 0.380586C24.6311 0.130476 25.0081 0.0557816 25.335 0.191133C25.6618 0.326537 25.8749 0.645944 25.875 0.999727V10.1003H28.75L28.8398 10.1052C29.2809 10.1502 29.625 10.5224 29.625 10.9753V23.5007C29.6246 23.9836 29.233 24.3757 28.75 24.3757H25.875V30.9997C25.875 31.3536 25.6619 31.6729 25.335 31.8083C25.008 31.9438 24.6311 31.8691 24.3809 31.6189L15.875 23.113V30.9997C15.875 31.483 15.4832 31.8747 15 31.8747C14.5168 31.8747 14.125 31.483 14.125 30.9997V23.113L5.61914 31.6189C5.36889 31.8691 4.992 31.9438 4.66504 31.8083C4.33815 31.6729 4.125 31.3536 4.125 30.9997V24.3757H1.25C0.76699 24.3757 0.375388 23.9836 0.375 23.5007V10.9753C0.375 10.4921 0.766751 10.1003 1.25 10.1003H4.125V0.999727C4.12511 0.645944 4.33818 0.326537 4.66504 0.191133C4.99192 0.0557816 5.36892 0.130476 5.61914 0.380586L14.125 8.88645V0.999727C14.1252 0.516607 14.5168 0.124727 15 0.124727ZM5.875 20.1462V28.8864L14.125 20.6364V12.9275L5.875 20.1462ZM15.875 20.6364L24.125 28.8864V20.1462L15.875 12.9275V20.6364ZM2.125 22.6257H4.125V19.7497L4.12988 19.656C4.15334 19.4388 4.25778 19.2369 4.42383 19.0915L12.6992 11.8503H5.20312C5.13787 11.8658 5.07001 11.8747 5 11.8747C4.92999 11.8747 4.86213 11.8658 4.79688 11.8503H2.125V22.6257ZM25.5762 19.0915C25.7659 19.2576 25.8749 19.4976 25.875 19.7497V22.6257H27.875V11.8503H25.2031C25.1379 11.8658 25.07 11.8747 25 11.8747C24.93 11.8747 24.8621 11.8658 24.7969 11.8503H17.3008L25.5762 19.0915ZM5.875 10.1003H12.8623L5.875 3.11301V10.1003ZM17.1377 10.1003H24.125V3.11301L17.1377 10.1003Z"/>
  </svg></svg>